<?xml version="1.0" encoding="utf-8"?>
<!-- Generator: Adobe Illustrator 24.1.2, SVG Export Plug-In . SVG Version: 6.00 Build 0)  -->
<svg version="1.1" id="Camada_1" xmlns="http://www.w3.org/2000/svg" xmlns:xlink="http://www.w3.org/1999/xlink" x="0px" y="0px"
	 viewBox="0 0 623.6 141.7" style="enable-background:new 0 0 623.6 141.7;" xml:space="preserve">
<style type="text/css">
	.st0{fill:#3C3C3B;}
	.st1{fill:#76B82A;}
</style>
<g>
	<g>
		<path class="st1" d="M32.6,67.5v20.2h33.6V6.9h26.9v107.7H5.7V67.5H32.6z"/>
		<path class="st1" d="M106.6,6.9h26.9v80.7h33.6V6.9h26.9v107.7h-87.5L106.6,6.9L106.6,6.9z"/>
		<path class="st1" d="M315.2,6.9v107.7h-26.9V33.9h-53.8v80.7h-26.9V6.9H315.2z"/>
		<path class="st1" d="M369,87.7h20.2V33.9h-33.6v100.9h-26.9V6.9h87.5v107.7H369L369,87.7L369,87.7z"/>
		<path class="st1" d="M469.9,47.3h20.2V33.9h-33.6v53.8H517v26.9h-87.5V6.9H517v67.3h-47.1L469.9,47.3L469.9,47.3z"/>
		<path class="st1" d="M618,6.9V54H591V33.9h-33.6v80.7h-26.9V6.9H618z"/>
	</g>
	<rect x="247.9" y="47.3" class="st0" width="26.9" height="67.3"/>
</g>
</svg>
