<?xml version="1.0" encoding="utf-8"?>
<!-- Generator: Adobe Illustrator 24.1.2, SVG Export Plug-In . SVG Version: 6.00 Build 0)  -->
<svg version="1.1" id="Camada_1" xmlns="http://www.w3.org/2000/svg" xmlns:xlink="http://www.w3.org/1999/xlink" x="0px" y="0px"
	 viewBox="0 0 699.57 185.87" style="enable-background:new 0 0 699.57 185.87;" xml:space="preserve">
<style type="text/css">
	.st0{fill:#575756;}
	.st1{fill:#FFFFFF;}
</style>
<g>
	<path class="st1" d="M70.55,89.57v20.19h33.64V29.01h26.91v107.66H43.64v-47.1H70.55z"/>
	<path class="st1" d="M144.57,29.01h26.91v80.74h33.64V29.01h26.91v107.66h-87.47V29.01z"/>
	<path class="st1" d="M353.15,29.01v107.66h-26.92V55.93h-53.83v80.74H245.5V29.01H353.15z M312.78,69.39v67.29h-26.91V69.39H312.78
		z"/>
	<path class="st1" d="M406.98,109.76h20.19V55.93h-33.64v100.93h-26.91V29.01h87.47v107.66h-47.1V109.76z"/>
	<path class="st1" d="M507.91,69.39h20.19V55.93h-33.64v53.83h60.56v26.91h-87.47V29.01h87.47V96.3h-47.1V69.39z"/>
	<path class="st1" d="M655.93,29.01v47.1h-26.91V55.93h-33.64v80.74h-26.91V29.01H655.93z"/>
</g>
</svg>
